<svg width="35" height="35" viewBox="0 0 35 35" fill="none" xmlns="http://www.w3.org/2000/svg">
  <path d="M31.0789 10.0307L24.969 3.92213C24.7658 3.71895 24.5247 3.55777 24.2592 3.44781C23.9938 3.33785 23.7093 3.28125 23.422 3.28125C23.1347 3.28125 22.8502 3.33785 22.5847 3.44781C22.3193 3.55777 22.0781 3.71895 21.875 3.92213L5.01622 20.7809C4.81221 20.9833 4.65046 21.2242 4.54038 21.4897C4.43031 21.7552 4.37409 22.0398 4.37501 22.3272V28.4372C4.37501 29.0173 4.60548 29.5737 5.01571 29.984C5.42595 30.3942 5.98235 30.6247 6.56251 30.6247H29.5313C29.8213 30.6247 30.0995 30.5094 30.3047 30.3043C30.5098 30.0992 30.625 29.821 30.625 29.5309C30.625 29.2408 30.5098 28.9626 30.3047 28.7575C30.0995 28.5524 29.8213 28.4372 29.5313 28.4372H15.7664L31.0789 13.1247C31.2821 12.9215 31.4433 12.6804 31.5532 12.4149C31.6632 12.1495 31.7198 11.865 31.7198 11.5777C31.7198 11.2904 31.6632 11.0059 31.5532 10.7405C31.4433 10.475 31.2821 10.2339 31.0789 10.0307ZM10.8445 25.7028L23.1957 13.3516L25.4776 15.6321L13.125 27.9846L10.8445 25.7028ZM21.6453 11.804L9.29689 24.1565L7.01505 21.8747L19.3676 9.5235L21.6453 11.804ZM6.56251 24.5147L10.485 28.4372H6.56251V24.5147Z" fill="#927A7A"/>
</svg>